# xmcd
#
# Track frame offsets: 
#        150
#        11737
#        24460
#        36436
#        46273
#        56840
#        68039
#        80628
#        93453
#        103215
#        112735
#        124580
#        137038
#        147309
#        160025
#        171255
#        182717
#        194404
#        205948
#        218032
#        229456
#        241392
#        253361
#        264699
#        275666
#        285658
#
# Disc length: 3964 seconds
#
# Revision: 1
# Processed by: cddbd v1.5.2PL0 Copyright (c) Steve Scherf et al.
# Submitted via: ExactAudioCopy v1.1
#
DISCID=8f0f7a1a
DTITLE=Jean Shepard - 5 Classic Albums Plus_CD3
DYEAR=2015
DGENRE=Country
TTITLE0=How Long Does It Hurt (When A Heart Breaks)
TTITLE1=Leave Me Alone
TTITLE2=Go On With Your Dancing
TTITLE3=I Don't Remember
TTITLE4=Are You Certain
TTITLE5=Would You Be Satisfied
TTITLE6=So Wrong,So Fast
TTITLE7=Second Best
TTITLE8=I Lost You After All
TTITLE9=I'd Like To Know (Where People Go)
TTITLE10=If You Were Losing Him To Me
TTITLE11=Jeaulous Heart
TTITLE12=You'll Come Crawling
TTITLE13=Don't Fall In Love With A Married Man
TTITLE14=Don't Rush Me
TTITLE15=Please Don't Divorce Me
TTITLE16=Did You Tell Her About Me
TTITLE17=You Sent Her An Orchid (You Sent Me A Rose)
TTITLE18=Take Possession
TTITLE19=I Thought Of You
TTITLE20=This Has Been Your Life
TTITLE21=He Loved Me Once And He'll Love Me Again
TTITLE22=Thank You Just The Same
TTITLE23=Just Give Me Love
TTITLE24=Tomorrow I'll Be Gone
TTITLE25=If You Can Walk Away
EXTD=
EXTT0=
EXTT1=
EXTT2=
EXTT3=
EXTT4=
EXTT5=
EXTT6=
EXTT7=
EXTT8=
EXTT9=
EXTT10=
EXTT11=
EXTT12=
EXTT13=
EXTT14=
EXTT15=
EXTT16=
EXTT17=
EXTT18=
EXTT19=
EXTT20=
EXTT21=
EXTT22=
EXTT23=
EXTT24=
EXTT25=
PLAYORDER=
